<svg width="16" height="16" viewBox="0 0 16 16" fill="none" xmlns="http://www.w3.org/2000/svg">
<path d="M14.2668 9.56671L10.0335 13.8C9.96683 13.8667 9.89183 13.9167 9.8085 13.95C9.72516 13.9834 9.63905 14 9.55016 14H9.00016C8.91127 14 8.8335 13.9667 8.76683 13.9C8.70016 13.8334 8.66683 13.7556 8.66683 13.6667V13.1167C8.66683 13.0278 8.6835 12.9417 8.71683 12.8584C8.75016 12.775 8.80016 12.7 8.86683 12.6334L13.1002 8.40004L14.2668 9.56671ZM1.3335 11.3334V4.66671C1.3335 4.30004 1.46405 3.98615 1.72516 3.72504C1.98627 3.46393 2.30016 3.33337 2.66683 3.33337H13.3335C13.7002 3.33337 14.0141 3.46393 14.2752 3.72504C14.5363 3.98615 14.6668 4.30004 14.6668 4.66671V5.33337H13.3335L10.0002 8.66671H4.66683C4.47794 8.66671 4.31961 8.7306 4.19183 8.85837C4.06405 8.98615 4.00016 9.14449 4.00016 9.33337C4.00016 9.52226 4.06405 9.6806 4.19183 9.80837C4.31961 9.93615 4.47794 10 4.66683 10H8.66683L6.00016 12.6667H2.66683C2.30016 12.6667 1.98627 12.5362 1.72516 12.275C1.46405 12.0139 1.3335 11.7 1.3335 11.3334ZM4.66683 7.33337H7.3335C7.52238 7.33337 7.68072 7.26949 7.8085 7.14171C7.93627 7.01393 8.00016 6.8556 8.00016 6.66671C8.00016 6.47782 7.93627 6.31949 7.8085 6.19171C7.68072 6.06393 7.52238 6.00004 7.3335 6.00004H4.66683C4.47794 6.00004 4.31961 6.06393 4.19183 6.19171C4.06405 6.31949 4.00016 6.47782 4.00016 6.66671C4.00016 6.8556 4.06405 7.01393 4.19183 7.14171C4.31961 7.26949 4.47794 7.33337 4.66683 7.33337ZM14.6668 9.16671L13.5002 8.00004L14.1002 7.40004C14.1557 7.34449 14.2168 7.31671 14.2835 7.31671C14.3502 7.31671 14.4113 7.34449 14.4668 7.40004L15.2668 8.20004C15.3224 8.2556 15.3502 8.31671 15.3502 8.38337C15.3502 8.45004 15.3224 8.51115 15.2668 8.56671L14.6668 9.16671Z" fill="white"/>
</svg>
