<svg width="16" height="16" viewBox="0 0 16 16" fill="none" xmlns="http://www.w3.org/2000/svg">
<g clip-path="url(#clip0_242_1246)">
<path d="M13.9998 3.33333C13.2598 3.1 12.4465 3 11.6665 3C10.3665 3 8.9665 3.26667 7.99984 4C7.03317 3.26667 5.63317 3 4.33317 3C3.03317 3 1.63317 3.26667 0.666504 4V13.7667C0.666504 13.9333 0.833171 14.1 0.999837 14.1C1.0665 14.1 1.09984 14.0667 1.1665 14.0667C2.0665 13.6333 3.3665 13.3333 4.33317 13.3333C5.63317 13.3333 7.03317 13.6 7.99984 14.3333C8.89984 13.7667 10.5332 13.3333 11.6665 13.3333C12.7665 13.3333 13.8998 13.5333 14.8332 14.0333C14.8998 14.0667 14.9332 14.0667 14.9998 14.0667C15.1665 14.0667 15.3332 13.9 15.3332 13.7333V4C14.9332 3.7 14.4998 3.5 13.9998 3.33333ZM13.9998 12.3333C13.2665 12.1 12.4665 12 11.6665 12C10.5332 12 8.89984 12.4333 7.99984 13V5.33333C8.89984 4.76667 10.5332 4.33333 11.6665 4.33333C12.4665 4.33333 13.2665 4.43333 13.9998 4.66667V12.3333Z" fill="white"/>
<path d="M11.6665 7C12.2532 7 12.8198 7.06 13.3332 7.17333V6.16C12.8065 6.06 12.2398 6 11.6665 6C10.5332 6 9.5065 6.19333 8.6665 6.55333V7.66C9.41984 7.23333 10.4665 7 11.6665 7Z" fill="white"/>
<path d="M8.6665 8.32665V9.43332C9.41984 9.00665 10.4665 8.77332 11.6665 8.77332C12.2532 8.77332 12.8198 8.83332 13.3332 8.94665V7.93332C12.8065 7.83332 12.2398 7.77332 11.6665 7.77332C10.5332 7.77332 9.5065 7.97332 8.6665 8.32665Z" fill="white"/>
<path d="M11.6665 9.55334C10.5332 9.55334 9.5065 9.74668 8.6665 10.1067V11.2133C9.41984 10.7867 10.4665 10.5533 11.6665 10.5533C12.2532 10.5533 12.8198 10.6133 13.3332 10.7267V9.71334C12.8065 9.60668 12.2398 9.55334 11.6665 9.55334Z" fill="white"/>
</g>
<defs>
<clipPath id="clip0_242_1246">
<rect width="16" height="16" fill="white"/>
</clipPath>
</defs>
</svg>
