<svg width="16" height="16" viewBox="0 0 16 16" fill="none" xmlns="http://www.w3.org/2000/svg">
<g clip-path="url(#clip0_242_1268)">
<path d="M12.7602 8.62664C12.7869 8.42664 12.8002 8.21998 12.8002 7.99998C12.8002 7.78664 12.7869 7.57331 12.7536 7.37331L14.1069 6.31997C14.2269 6.22664 14.2602 6.04664 14.1869 5.91331L12.9069 3.69998C12.8269 3.55331 12.6602 3.50664 12.5136 3.55331L10.9202 4.19331C10.5869 3.93998 10.2336 3.72664 9.84024 3.56664L9.60024 1.87331C9.57357 1.71331 9.44024 1.59998 9.28024 1.59998H6.72024C6.56024 1.59998 6.43357 1.71331 6.4069 1.87331L6.1669 3.56664C5.77357 3.72664 5.41357 3.94664 5.0869 4.19331L3.49357 3.55331C3.3469 3.49998 3.18024 3.55331 3.10024 3.69998L1.8269 5.91331C1.7469 6.05331 1.77357 6.22664 1.9069 6.31997L3.26024 7.37331C3.2269 7.57331 3.20024 7.79331 3.20024 7.99998C3.20024 8.20664 3.21357 8.42664 3.2469 8.62664L1.89357 9.67998C1.77357 9.77331 1.74024 9.95331 1.81357 10.0866L3.09357 12.3C3.17357 12.4466 3.34024 12.4933 3.4869 12.4466L5.08024 11.8066C5.41357 12.06 5.7669 12.2733 6.16024 12.4333L6.40024 14.1266C6.43357 14.2866 6.56024 14.4 6.72024 14.4H9.28024C9.44024 14.4 9.57357 14.2866 9.59357 14.1266L9.83357 12.4333C10.2269 12.2733 10.5869 12.06 10.9136 11.8066L12.5069 12.4466C12.6536 12.5 12.8202 12.4466 12.9002 12.3L14.1802 10.0866C14.2602 9.93997 14.2269 9.77331 14.1002 9.67998L12.7602 8.62664ZM8.00024 10.4C6.68024 10.4 5.60024 9.31998 5.60024 7.99998C5.60024 6.67998 6.68024 5.59998 8.00024 5.59998C9.32024 5.59998 10.4002 6.67998 10.4002 7.99998C10.4002 9.31998 9.32024 10.4 8.00024 10.4Z" fill="white"/>
</g>
<defs>
<clipPath id="clip0_242_1268">
<rect width="16" height="16" fill="white"/>
</clipPath>
</defs>
</svg>
